<svg xmlns="http://www.w3.org/2000/svg" xmlns:xlink="http://www.w3.org/1999/xlink" width="953" height="320" viewBox="0 0 953 320"><defs><linearGradient id="a" x1="7691.48" y1="-2870.95" x2="7557.22" y2="-2933.56" gradientTransform="matrix(-0.71, 0.71, 0.71, 0.71, 7653.72, -3170.27)" gradientUnits="userSpaceOnUse"><stop offset="0" stop-color="#fa0"/><stop offset="0.79" stop-color="#a36d00"/></linearGradient></defs><title>MASQ_Logo_Horizontal_Gold</title><path d="M338.15,161.69l-10.06-28.87V182.7a1.43,1.43,0,0,1-1.43,1.43H314.77a1.43,1.43,0,0,1-1.43-1.43V105.56a1.43,1.43,0,0,1,1.43-1.43H328.1a1.43,1.43,0,0,1,1.35,1l14.06,40.07,14.07-40.07a1.43,1.43,0,0,1,1.35-1h13.33a1.43,1.43,0,0,1,1.43,1.43V182.7a1.43,1.43,0,0,1-1.43,1.43H360.37a1.43,1.43,0,0,1-1.43-1.43V132.82l-10.06,28.87a1.43,1.43,0,0,1-1.35,1h-8A1.43,1.43,0,0,1,338.15,161.69Z" style="fill:#e69900"/><path d="M486.8,168l-5.37,15.16a1.44,1.44,0,0,1-1.35.95h-13a1.43,1.43,0,0,1-1.35-1.91l27.55-77.14a1.43,1.43,0,0,1,1.35-1h12.61a1.43,1.43,0,0,1,1.35,1l27.55,77.14a1.43,1.43,0,0,1-1.35,1.91h-13a1.43,1.43,0,0,1-1.35-.95L515.15,168ZM501,127.56l-8.91,25.94h17.83Z" style="fill:#e69900"/><path d="M629.65,158.47h12.68a1.38,1.38,0,0,1,1.35,1.08c1.28,5.95,6.23,9.81,13.25,9.81,6.56,0,11.12-2.45,11.12-7.78,0-4.34-2.56-6.78-8-8.22l-13.12-3.56c-11.88-3.22-17.77-11.56-17.77-23,0-15.56,12.22-22.67,25.77-22.67,14.91,0,24.41,8.37,26.64,20.7a1.39,1.39,0,0,1-1.37,1.64H666.26a1.4,1.4,0,0,1-1.29-.89c-1.72-4.42-6.12-6.67-10.81-6.67-5.67,0-10.11,2.45-10.11,7.89,0,4.56,3.55,6.56,7.77,7.67l12.67,3.44c12,3.22,18.44,10.56,18.44,23.67,0,14-9.11,22.55-26,22.55-16.43,0-27.25-9.55-28.66-24.13A1.39,1.39,0,0,1,629.65,158.47Z" style="fill:#e69900"/><path d="M829.13,171.55l5,5.09a1.37,1.37,0,0,1,0,2L826,186.47a1.38,1.38,0,0,1-2,0l-5.54-5.74a33.37,33.37,0,0,1-14.24,2.87c-18.53,0-29.13-11.47-29.13-28.58V132.71c0-17.1,10.6-28.58,29.13-28.58s29.14,11.48,29.14,28.58V155C833.44,161.4,832,167,829.13,171.55Zm-22.07-2.86L790,150.92V155c0,8.94,6.29,13.91,14.34,13.91A23.16,23.16,0,0,0,807.06,168.69Zm11.59-36c0-8.94-6.29-13.9-14.35-13.9-7.5,0-13.46,4.3-14.23,12l27.81,29a16.67,16.67,0,0,0,.77-4.86Z" style="fill:#e69900"/><path d="M223.28,108.89l10.44-10.44a66.28,66.28,0,1,0-64,110.9,67,67,0,0,1-2.25-16.28" style="fill:#66390a"/><path d="M253.05,142.25v-.16c-.05-1-.13-2-.22-3.06v-.1c-.1-1-.23-2.08-.37-3.12h0a65.4,65.4,0,0,0-2-9.34v0c-.29-1-.61-2-.95-3l-.06-.17c-.33-.93-.68-1.85-1-2.77,0-.11-.09-.23-.14-.34-.35-.85-.72-1.7-1.1-2.54l-.24-.52c-.37-.78-.75-1.55-1.15-2.32l-.35-.66c-.38-.72-.78-1.44-1.2-2.15l-.42-.72c-.42-.69-.84-1.37-1.28-2l-.47-.71c-.46-.68-.93-1.36-1.42-2l-.45-.61c-.52-.71-1.07-1.42-1.63-2.11-.12-.15-.23-.3-.36-.45-.62-.75-1.26-1.5-1.91-2.23l-.21-.24c-.74-.81-1.5-1.61-2.28-2.39h0l-10.44,10.44-36.43,36.43a66.07,66.07,0,0,0-19.39,47.75,67,67,0,0,0,2.25,16.28A66,66,0,0,0,186.85,239l46.86-46.85h0q1.17-1.19,2.28-2.4l.21-.23c.65-.74,1.29-1.48,1.91-2.24.13-.15.24-.3.36-.45.56-.69,1.11-1.39,1.63-2.1l.45-.61c.49-.67,1-1.35,1.42-2,.16-.23.31-.47.46-.7.45-.68.88-1.37,1.29-2.06l.42-.72c.42-.71.82-1.43,1.2-2.15l.35-.65c.4-.77.78-1.55,1.15-2.33l.24-.51c.38-.84.75-1.69,1.1-2.55a3.45,3.45,0,0,0,.14-.34c.37-.92.72-1.84,1-2.77l.06-.16c.34-1,.66-2,.95-3v0a65.4,65.4,0,0,0,2-9.34h0c.14-1,.27-2.08.37-3.12v-.11c.09-1,.17-2,.22-3.06v-.15Q253.2,145.32,253.05,142.25Z" style="fill:url(#a)"/><rect width="953" height="320" style="fill:none"/></svg>