<?xml version="1.0" encoding="UTF-8"?>
<svg width="300" height="300" version="1.1" viewBox="0 0 79.375 79.375" xmlns="http://www.w3.org/2000/svg" xmlns:cc="http://creativecommons.org/ns#" xmlns:dc="http://purl.org/dc/elements/1.1/" xmlns:rdf="http://www.w3.org/1999/02/22-rdf-syntax-ns#">
 <defs>
  <linearGradient id="a" x1="7691.5" x2="7557.2" y1="-2871" y2="-2933.6" gradientTransform="matrix(-.71 .71 .71 .71 7653.7 -3170.3)" gradientUnits="userSpaceOnUse">
   <stop stop-color="#fa0" offset="0"/>
   <stop stop-color="#a36d00" offset=".79"/>
  </linearGradient>
 </defs>
 <metadata>
  <rdf:RDF>
   <cc:Work rdf:about="">
    <dc:format>image/svg+xml</dc:format>
    <dc:type rdf:resource="http://purl.org/dc/dcmitype/StillImage"/>
    <dc:title/>
   </cc:Work>
  </rdf:RDF>
 </metadata>
 <g transform="matrix(.49623 0 0 .49623 -53.029 -39.225)">
  <path d="m223.28 108.89 10.44-10.44a66.28 66.28 0 1 0-64 110.9 67 67 0 0 1-2.25-16.28" fill="#66390a"/>
  <path d="m253.05 142.25v-0.16c-0.05-1-0.13-2-0.22-3.06v-0.1c-0.1-1-0.23-2.08-0.37-3.12a65.4 65.4 0 0 0-2-9.34c-0.29-1-0.61-2-0.95-3l-0.06-0.17c-0.33-0.93-0.68-1.85-1-2.77 0-0.11-0.09-0.23-0.14-0.34-0.35-0.85-0.72-1.7-1.1-2.54l-0.24-0.52c-0.37-0.78-0.75-1.55-1.15-2.32l-0.35-0.66c-0.38-0.72-0.78-1.44-1.2-2.15l-0.42-0.72c-0.42-0.69-0.84-1.37-1.28-2l-0.47-0.71c-0.46-0.68-0.93-1.36-1.42-2l-0.45-0.61c-0.52-0.71-1.07-1.42-1.63-2.11-0.12-0.15-0.23-0.3-0.36-0.45-0.62-0.75-1.26-1.5-1.91-2.23l-0.21-0.24c-0.74-0.81-1.5-1.61-2.28-2.39l-46.87 46.87a66.07 66.07 0 0 0-19.39 47.75 67 67 0 0 0 2.25 16.28 66 66 0 0 0 17.02 29.56l46.86-46.85q1.17-1.19 2.28-2.4l0.21-0.23c0.65-0.74 1.29-1.48 1.91-2.24 0.13-0.15 0.24-0.3 0.36-0.45 0.56-0.69 1.11-1.39 1.63-2.1l0.45-0.61c0.49-0.67 1-1.35 1.42-2 0.16-0.23 0.31-0.47 0.46-0.7 0.45-0.68 0.88-1.37 1.29-2.06l0.42-0.72c0.42-0.71 0.82-1.43 1.2-2.15l0.35-0.65c0.4-0.77 0.78-1.55 1.15-2.33l0.24-0.51c0.38-0.84 0.75-1.69 1.1-2.55a3.45 3.45 0 0 0 0.14-0.34c0.37-0.92 0.72-1.84 1-2.77l0.06-0.16c0.34-1 0.66-2 0.95-3a65.4 65.4 0 0 0 2-9.34c0.14-1 0.27-2.08 0.37-3.12v-0.11c0.09-1 0.17-2 0.22-3.06v-0.15q0.28-3.08 0.13-6.15z" fill="url(#a)"/>
 </g>
</svg>
